<svg width="200" height="52" viewBox="0 0 200 52" fill="none" xmlns="http://www.w3.org/2000/svg">
<path d="M37.9626 37.3798H27.7229V36.1395C28.6295 36.0804 29.3763 35.968 29.9746 35.791C30.5671 35.6198 30.8632 35.4072 30.8632 35.1531C30.8632 35.0467 30.8575 34.9228 30.8336 34.775C30.8097 34.6216 30.7743 34.4917 30.7268 34.3735L28.6884 28.875H20.0428C19.7168 29.6838 19.4563 30.3868 19.2485 30.9832C19.0474 31.5855 18.8635 32.1351 18.7035 32.6427C18.5553 33.1387 18.4485 33.5463 18.3892 33.8535C18.3302 34.1664 18.3003 34.4205 18.3003 34.6153C18.3003 35.0759 18.6678 35.4362 19.3967 35.6903C20.1254 35.9445 20.9493 36.0919 21.8619 36.1392V37.3795H12.5766V36.1392C12.8787 36.1154 13.252 36.0506 13.7081 35.9384C14.1585 35.832 14.526 35.6843 14.8161 35.5013C15.2786 35.1884 15.6397 34.8634 15.8947 34.5212C16.1497 34.1787 16.3983 33.7121 16.6412 33.1097C17.8798 30.0326 19.2428 26.5717 20.7358 22.7271C22.2291 18.8882 23.5624 15.4686 24.73 12.4683H26.1226L34.3353 33.6472C34.5071 34.0958 34.7025 34.4621 34.9218 34.7398C35.1411 35.0174 35.4493 35.2833 35.8462 35.5489C36.1072 35.7144 36.4566 35.8501 36.8831 35.9565C37.3156 36.0687 37.6713 36.1277 37.9617 36.1398V37.3801L37.9626 37.3798ZM28.0608 27.3513L24.3216 17.8131L20.6417 27.3513H28.0608Z" fill="#431B1E"/>
<path d="M25.7871 5.08112C31.5795 5.08112 36.8235 7.42113 40.6195 11.2046C44.4153 14.9877 46.7634 20.2146 46.7634 25.9875C46.7634 31.7607 44.4153 36.9873 40.6195 40.7704C36.8235 44.5536 31.5795 46.8939 25.7871 46.8939C19.9947 46.8939 14.7505 44.5536 10.955 40.7704C7.15926 36.9873 4.81146 31.7607 4.81146 25.9875C4.81146 20.2143 7.15926 14.9877 10.955 11.2046C14.7508 7.42113 19.995 5.08112 25.7871 5.08112ZM40.3419 11.4813C36.6172 7.76903 31.4709 5.47242 25.7871 5.47242C20.1033 5.47242 14.9573 7.76873 11.2324 11.4813C7.50771 15.1936 5.20347 20.3226 5.20347 25.9878C5.20347 31.6527 7.50771 36.782 11.2324 40.4943C14.957 44.2066 20.1033 46.5032 25.7871 46.5032C31.4712 46.5032 36.6175 44.2069 40.3419 40.4943C44.0665 36.782 46.3705 31.6527 46.3705 25.9878C46.3705 20.3226 44.0665 15.1936 40.3419 11.4813Z" fill="#431B1E"/>
<path d="M25.7871 0.285904C32.9083 0.285904 39.3552 3.16314 44.0212 7.81362C48.6874 12.4647 51.5742 18.8906 51.5742 25.9875C51.5742 33.0847 48.6874 39.5102 44.0212 44.1613C39.3552 48.8118 32.9083 51.689 25.7871 51.689C18.6663 51.689 12.2193 48.8118 7.55278 44.1613C2.88651 39.5102 0 33.0847 0 25.9875C0 18.8903 2.88651 12.4647 7.55278 7.81362C12.2193 3.16314 18.6666 0.285904 25.7871 0.285904V0.285904ZM42.6331 9.19707C38.3219 4.90051 32.3662 2.24275 25.7871 2.24275C19.2086 2.24275 13.252 4.90051 8.94083 9.19707C4.62997 13.4939 1.96336 19.4305 1.96336 25.9875C1.96336 32.5445 4.62997 38.481 8.94083 42.7776C13.252 47.0741 19.2086 49.7322 25.7871 49.7322C32.3662 49.7322 38.3222 47.0741 42.6331 42.7776C46.944 38.4807 49.6109 32.5445 49.6109 25.9875C49.6109 19.4305 46.944 13.4939 42.6331 9.19707Z" fill="#431B1E"/>
<path d="M80.6108 23.6437H74.0278V22.8463C74.6106 22.8087 75.0907 22.7363 75.4754 22.6227C75.8562 22.5123 76.0468 22.3758 76.0468 22.2127C76.0468 22.1442 76.0429 22.0643 76.0277 21.9697C76.0126 21.8708 75.9896 21.7873 75.9594 21.7116L74.6488 18.1766H69.0905C68.8812 18.6966 68.7133 19.1485 68.5799 19.5323C68.4505 19.9194 68.3325 20.2724 68.2294 20.5992C68.1341 20.9181 68.0657 21.1801 68.0276 21.3773C67.9895 21.5787 67.9704 21.7421 67.9704 21.8672C67.9704 22.1635 68.2067 22.395 68.6755 22.5584C69.144 22.7218 69.6737 22.8165 70.2602 22.847V23.6443H64.2905V22.847C64.4847 22.8319 64.7249 22.7903 65.0183 22.7179C65.3078 22.6498 65.544 22.5545 65.7306 22.4369C66.028 22.2356 66.2603 22.027 66.4239 21.8066C66.5878 21.5865 66.7478 21.2865 66.9042 20.8991C67.7003 18.9209 68.5766 16.6957 69.5366 14.224C70.4967 11.7559 71.3539 9.55753 72.1044 7.62872H72.9997L78.28 21.2446C78.3907 21.5334 78.5162 21.7689 78.6571 21.9471C78.7981 22.1255 78.9962 22.2965 79.2515 22.4674C79.4191 22.5738 79.6438 22.6609 79.9182 22.7294C80.1964 22.8014 80.4248 22.8394 80.6114 22.847V23.6443L80.6108 23.6437ZM74.245 17.1965L71.8409 11.0643L69.4752 17.1965H74.2453H74.245ZM97.5908 23.6437H91.0078V22.8463C91.1868 22.8313 91.4418 22.8087 91.7773 22.7782C92.1124 22.7517 92.3447 22.7062 92.4705 22.6453C92.6913 22.5578 92.8513 22.4213 92.9545 22.2392C93.0573 22.0607 93.1109 21.8253 93.1109 21.5368V15.921H85.6818V21.4116C85.6818 21.6736 85.7235 21.8901 85.8113 22.0686C85.899 22.247 86.0702 22.4026 86.3258 22.5355C86.4552 22.604 86.6836 22.6688 87.0115 22.7369C87.3391 22.8014 87.598 22.8394 87.7846 22.847V23.6443H81.2016V22.847C81.3806 22.8319 81.6356 22.8093 81.971 22.7788C82.3062 22.7523 82.5385 22.7068 82.6643 22.6459C82.8851 22.5584 83.0451 22.4219 83.1483 22.2398C83.2511 22.0613 83.3044 21.8259 83.3044 21.5374V10.1535C83.3044 9.91839 83.2551 9.70163 83.1598 9.50417C83.0645 9.3067 82.8969 9.15476 82.6643 9.04081C82.4626 8.94584 82.2224 8.86234 81.9366 8.78667C81.6547 8.71462 81.4072 8.66879 81.2016 8.65372V7.85633H87.7846V8.65372C87.5753 8.66126 87.3161 8.69532 87.0115 8.7523C86.7066 8.8132 86.4779 8.87017 86.3258 8.91961C86.0705 9.01066 85.899 9.15868 85.8113 9.3676C85.7235 9.5726 85.6818 9.80051 85.6818 10.0438V14.9421H93.1109V10.1578C93.1109 9.91869 93.0613 9.70193 92.966 9.50447C92.8707 9.307 92.7031 9.15506 92.4705 9.04503C92.2688 8.94614 92.0286 8.86264 91.7431 8.78697C91.4609 8.71492 91.2134 8.66909 91.0078 8.65402V7.85663H97.5908V8.65402C97.3815 8.66156 97.1223 8.69562 96.8177 8.7526C96.5128 8.8135 96.2844 8.87047 96.132 8.91992C95.8767 9.01096 95.7052 9.15898 95.6175 9.36428C95.5297 9.5729 95.488 9.80081 95.488 10.0441V21.4126C95.488 21.6745 95.5297 21.891 95.6175 22.0695C95.7052 22.2479 95.8764 22.4035 96.132 22.5364C96.2614 22.6049 96.4898 22.6697 96.8177 22.7378C97.1453 22.8023 97.4042 22.8403 97.5908 22.8479V23.6452V23.6437ZM114.574 23.6437H107.991V22.8463C108.574 22.8087 109.054 22.7363 109.439 22.6227C109.82 22.5123 110.01 22.3758 110.01 22.2127C110.01 22.1442 110.006 22.0643 109.991 21.9697C109.976 21.8708 109.953 21.7873 109.923 21.7116L108.612 18.1766H103.054C102.845 18.6966 102.677 19.1485 102.544 19.5323C102.414 19.9194 102.296 20.2724 102.193 20.5992C102.098 20.9181 102.029 21.1801 101.991 21.3773C101.953 21.5787 101.934 21.7421 101.934 21.8672C101.934 22.1635 102.17 22.395 102.639 22.5584C103.108 22.7218 103.637 22.8165 104.224 22.847V23.6443H98.2541V22.847C98.4483 22.8319 98.6885 22.7903 98.9819 22.7179C99.2713 22.6498 99.5076 22.5545 99.6942 22.4369C99.9915 22.2356 100.224 22.027 100.387 21.8066C100.551 21.5865 100.711 21.2865 100.868 20.8991C101.664 18.9209 102.54 16.6957 103.5 14.224C104.46 11.7559 105.317 9.55753 106.068 7.62872H106.963L112.244 21.2446C112.354 21.5334 112.48 21.7689 112.621 21.9471C112.762 22.1255 112.96 22.2965 113.215 22.4674C113.383 22.5738 113.607 22.6609 113.882 22.7294C114.16 22.8014 114.388 22.8394 114.575 22.847V23.6443L114.574 23.6437ZM108.209 17.1965L105.804 11.0643L103.439 17.1965H108.209H108.209ZM128.012 12.1387H127.234C127.166 11.8728 127.048 11.5542 126.872 11.1858C126.697 10.8213 126.503 10.4719 126.286 10.1454C126.061 9.80353 125.817 9.50748 125.555 9.24942C125.288 8.99498 125.032 8.84696 124.789 8.80898C124.556 8.78245 124.267 8.75984 123.916 8.74446C123.566 8.72939 123.242 8.72185 122.945 8.72185H122.297V21.3471C122.297 21.5901 122.35 21.8141 122.453 22.0191C122.556 22.2241 122.739 22.38 122.998 22.4903C123.132 22.5434 123.413 22.6118 123.84 22.7028C124.267 22.7903 124.598 22.8394 124.835 22.847V23.6443H117.36V22.847C117.57 22.8319 117.886 22.8017 118.316 22.7595C118.743 22.714 119.04 22.657 119.204 22.5925C119.451 22.4936 119.63 22.3571 119.749 22.175C119.863 21.9926 119.92 21.7499 119.92 21.446V8.72215H119.272C119.04 8.72215 118.754 8.72577 118.411 8.73723C118.068 8.74868 117.741 8.77521 117.428 8.80928C117.184 8.83973 116.929 8.98775 116.662 9.24973C116.4 9.51562 116.156 9.81167 115.931 10.1457C115.71 10.48 115.512 10.8367 115.341 11.209C115.169 11.5849 115.051 11.8924 114.982 12.139H114.205V7.85603H128.012V12.139L128.012 12.1387ZM142.069 9.72002C142.77 10.4451 143.315 11.3223 143.711 12.3513C144.103 13.3805 144.302 14.5194 144.302 15.7648C144.302 17.0216 144.1 18.1606 143.7 19.1859C143.296 20.2112 142.74 21.0845 142.024 21.8024C141.334 22.5162 140.53 23.0667 139.616 23.4502C138.698 23.8373 137.726 24.0311 136.69 24.0311C135.589 24.0311 134.572 23.8261 133.639 23.4122C132.706 23.0022 131.901 22.4288 131.231 21.692C130.564 20.9706 130.035 20.0972 129.654 19.0683C129.269 18.0391 129.079 16.9381 129.079 15.7648C129.079 14.4814 129.281 13.3347 129.681 12.3286C130.084 11.3223 130.637 10.4529 131.345 9.72002C132.043 8.99106 132.858 8.43274 133.784 8.04927C134.709 7.66218 135.677 7.46834 136.69 7.46834C137.738 7.46834 138.728 7.6658 139.658 8.05681C140.588 8.45173 141.392 9.00614 142.07 9.72002H142.069ZM140.408 20.9326C140.827 20.2531 141.128 19.4898 141.319 18.6318C141.509 17.7771 141.605 16.8242 141.605 15.7648C141.605 14.6789 141.498 13.6841 141.285 12.7766C141.075 11.8692 140.763 11.0944 140.355 10.4565C139.944 9.82222 139.429 9.33263 138.812 8.97961C138.195 8.62629 137.486 8.44812 136.69 8.44812C135.795 8.44812 135.037 8.65311 134.412 9.06311C133.787 9.4695 133.277 10.0164 132.88 10.7034C132.51 11.3567 132.232 12.1236 132.05 13.0009C131.867 13.8779 131.775 14.8007 131.775 15.7651C131.775 16.8359 131.87 17.804 132.065 18.6662C132.259 19.532 132.564 20.295 132.983 20.967C133.383 21.6203 133.889 22.1328 134.499 22.5012C135.112 22.8696 135.84 23.0517 136.689 23.0517C137.486 23.0517 138.206 22.8656 138.846 22.4936C139.486 22.1216 140.008 21.6013 140.408 20.9329L140.408 20.9326ZM165.335 23.6437H158.318V22.8463C158.569 22.8388 158.897 22.8123 159.297 22.7707C159.693 22.7252 159.967 22.6603 160.116 22.5808C160.348 22.4403 160.516 22.2769 160.622 22.0948C160.733 21.9124 160.786 21.6848 160.786 21.4113V9.93648H160.619L155.232 23.3932H154.679L149.548 9.65942H149.403V19.0762C149.403 19.9872 149.46 20.6821 149.574 21.1569C149.693 21.6317 149.868 21.9733 150.104 22.1786C150.268 22.3341 150.607 22.4822 151.121 22.623C151.632 22.7671 151.967 22.8391 152.123 22.8466V23.644H145.746V22.8466C146.081 22.8165 146.432 22.7631 146.797 22.6796C147.167 22.6 147.449 22.4746 147.651 22.3115C147.91 22.1065 148.089 21.7873 148.184 21.3586C148.279 20.9296 148.329 20.2082 148.329 19.2019V11.133C148.329 10.666 148.272 10.2826 148.161 9.98652C148.051 9.69017 147.891 9.45111 147.681 9.2651C147.449 9.06372 147.167 8.9157 146.831 8.82073C146.496 8.72185 146.165 8.66879 145.837 8.65372V7.85633H151.232L155.734 19.7147L159.605 9.79659C159.75 9.43212 159.868 9.04864 159.971 8.65372C160.07 8.25487 160.127 7.98898 160.131 7.85633H165.312V8.65372C165.103 8.66126 164.84 8.69532 164.516 8.7523C164.192 8.8132 163.956 8.87017 163.811 8.91961C163.556 9.01066 163.385 9.15868 163.297 9.36398C163.209 9.5726 163.164 9.80051 163.164 10.0438V21.4123C163.164 21.6742 163.209 21.8907 163.297 22.0692C163.385 22.2476 163.556 22.4032 163.811 22.5361C163.945 22.6121 164.181 22.6805 164.524 22.7411C164.863 22.8056 165.133 22.84 165.335 22.8476V23.6449L165.335 23.6437ZM183.968 23.6437H177.385V22.8463C177.564 22.8313 177.827 22.8087 178.173 22.7782C178.52 22.7517 178.756 22.7062 178.886 22.6453C179.107 22.5578 179.271 22.4213 179.377 22.2392C179.48 22.0607 179.534 21.8253 179.534 21.5328V11.6947L171.899 21.2175V21.4719C171.899 21.73 171.945 21.9389 172.028 22.0984C172.116 22.2582 172.284 22.4023 172.539 22.5349C172.665 22.6034 172.901 22.6682 173.244 22.7363C173.587 22.8008 173.853 22.8388 174.048 22.8463V23.6437H167.51V22.8463C167.689 22.8313 167.944 22.8087 168.28 22.7782C168.615 22.7517 168.847 22.7062 168.973 22.6453C169.194 22.5578 169.354 22.4213 169.457 22.2392C169.56 22.0607 169.613 21.8253 169.613 21.5368V10.1529C169.613 9.91778 169.564 9.70103 169.469 9.50356C169.373 9.3061 169.206 9.15416 168.973 9.0402C168.771 8.94524 168.531 8.86173 168.245 8.78606C167.963 8.71401 167.716 8.66819 167.51 8.65311V7.85573H174.048V8.65311C173.838 8.66065 173.579 8.69472 173.271 8.7517C172.962 8.81259 172.733 8.86957 172.581 8.91901C172.33 9.01006 172.158 9.15808 172.074 9.36338C171.987 9.572 171.945 9.79991 171.945 10.0432V19.6384L179.58 10.1267C179.58 9.86081 179.53 9.64073 179.435 9.46588C179.336 9.29494 179.168 9.15084 178.928 9.04081C178.741 8.95338 178.486 8.86987 178.159 8.79029C177.827 8.71462 177.572 8.66879 177.385 8.65372V7.85633H183.969V8.65372C183.759 8.66126 183.5 8.69532 183.195 8.7523C182.89 8.8132 182.662 8.87017 182.509 8.91961C182.254 9.01066 182.083 9.15868 181.995 9.36398C181.907 9.5726 181.865 9.80051 181.865 10.0438V21.4123C181.865 21.6742 181.907 21.8907 181.995 22.0692C182.083 22.2476 182.254 22.4032 182.509 22.5361C182.639 22.6046 182.868 22.6694 183.195 22.7375C183.523 22.802 183.782 22.84 183.969 22.8476V23.6449L183.968 23.6437ZM200 23.6437H193.325V22.8463C193.504 22.8313 193.759 22.8047 194.094 22.7707C194.43 22.7327 194.666 22.6833 194.796 22.6227C195.02 22.5277 195.18 22.3872 195.28 22.2012C195.379 22.0152 195.428 21.7797 195.428 21.4912V16.4904H194.384C193.531 16.4904 192.872 16.665 192.407 17.0144C191.938 17.3638 191.443 18.1154 190.921 19.27C190.586 20.0219 190.289 20.7089 190.034 21.3396C189.775 21.9739 189.481 22.7405 189.154 23.6443H184.799V22.847C184.971 22.8243 185.161 22.8017 185.374 22.7827C185.588 22.7598 185.797 22.7297 186.007 22.6917C186.312 22.6347 186.556 22.5208 186.742 22.3574C186.929 22.1903 187.131 21.8753 187.355 21.4083C187.55 20.9869 187.774 20.5009 188.037 19.9504C188.296 19.4036 188.498 18.9706 188.639 18.6595C188.975 17.9266 189.367 17.3647 189.817 16.9812C190.266 16.5938 190.834 16.2864 191.52 16.0584V15.9029C190.994 15.7889 190.499 15.637 190.034 15.4395C189.569 15.2421 189.161 14.9876 188.803 14.6765C188.449 14.3572 188.167 13.9738 187.962 13.5261C187.759 13.0781 187.657 12.5541 187.657 11.9503C187.657 11.2856 187.794 10.6935 188.068 10.1807C188.342 9.67179 188.716 9.23917 189.184 8.89369C189.63 8.55936 190.159 8.3013 190.769 8.12283C191.378 7.94436 192.011 7.85693 192.674 7.85693H200V8.65432C199.79 8.66186 199.52 8.69954 199.188 8.76436C198.853 8.83249 198.609 8.88977 198.453 8.94283C198.198 9.03025 198.03 9.18189 197.939 9.39865C197.851 9.61511 197.805 9.84302 197.805 10.0896V21.4924C197.805 21.7505 197.847 21.9784 197.927 22.1759C198.011 22.3733 198.182 22.5214 198.453 22.6239C198.587 22.6769 198.819 22.7264 199.154 22.7719C199.485 22.8135 199.771 22.84 200 22.8476V23.6449L200 23.6437ZM195.428 15.5333V8.76707H193.508C192.544 8.76707 191.774 9.07457 191.206 9.69349C190.639 10.3124 190.353 11.1134 190.353 12.1007C190.353 13.2243 190.681 14.079 191.336 14.6596C191.988 15.2405 192.856 15.533 193.934 15.533H195.428V15.5333Z" fill="#431B1E"/>
<path d="M64.3596 29.1926H199.885V30.877H64.3596V29.1926Z" fill="#431B1E"/>
<path d="M64.3596 31.911H199.885V32.9484H64.3596V31.911Z" fill="#431B1E"/>
<path d="M69.4932 43.2346H67.9785C67.8726 42.9306 67.7693 42.6541 67.6686 42.4051C67.5679 42.1535 67.4646 41.9098 67.3587 41.6739C67.1856 41.2781 67.01 41.0108 66.8318 40.8719C66.6562 40.733 66.4186 40.6635 66.119 40.6635H65.8362V42.4484C65.8362 42.5348 65.8517 42.6122 65.8827 42.6803C65.9163 42.7484 65.9757 42.8035 66.0609 42.8454C66.1022 42.8638 66.1784 42.886 66.2895 42.9123C66.4031 42.9385 66.4974 42.9529 66.5723 42.9555V43.2346H64.2905V42.9555C64.3499 42.9503 64.4365 42.9424 64.5501 42.9319C64.6637 42.9214 64.7438 42.9057 64.7903 42.8847C64.8678 42.8507 64.9233 42.8009 64.9569 42.7353C64.993 42.6672 65.0111 42.586 65.0111 42.4916V38.4659C65.0111 38.3768 64.9956 38.2995 64.9646 38.234C64.9362 38.1684 64.8781 38.1147 64.7903 38.0728C64.7205 38.0387 64.6379 38.0086 64.5423 37.9824C64.4468 37.9561 64.3629 37.9404 64.2905 37.9352V37.6561H66.5723V37.9352C66.5 37.9378 66.4096 37.9496 66.3011 37.9706C66.1926 37.9915 66.1126 38.0112 66.0609 38.0295C65.9731 38.061 65.9137 38.1134 65.8827 38.1868C65.8517 38.2602 65.8362 38.3401 65.8362 38.4266V40.3372H66.1965C66.2921 40.3372 66.385 40.3163 66.4754 40.2743C66.5684 40.2324 66.6536 40.1708 66.7311 40.0896C66.8422 39.9742 66.9313 39.834 66.9984 39.6689C67.0656 39.5012 67.1379 39.2994 67.2153 39.0635C67.2877 38.8459 67.3626 38.6441 67.44 38.458C67.5175 38.272 67.6311 38.1003 67.7809 37.943C67.8817 37.8382 68.0005 37.7556 68.1373 37.6954C68.2742 37.6351 68.4227 37.6049 68.5828 37.6049C68.6939 37.6049 68.7907 37.6194 68.8734 37.6482C68.956 37.6744 69.0258 37.7124 69.0826 37.7622C69.1342 37.8068 69.173 37.8592 69.1988 37.9195C69.2246 37.9797 69.2375 38.0453 69.2375 38.116C69.2375 38.1737 69.2285 38.23 69.2104 38.2851C69.1949 38.3401 69.1717 38.386 69.1407 38.4227C69.1045 38.4672 69.0645 38.5026 69.0206 38.5288C68.9767 38.5524 68.9147 38.5642 68.8346 38.5642C68.7494 38.5642 68.6745 38.5498 68.61 38.5209C68.548 38.4921 68.4937 38.4528 68.4472 38.403C68.4008 38.3532 68.3581 38.2955 68.3194 38.23C68.2833 38.1619 68.2484 38.0937 68.2148 38.0256C68.1425 38.0754 68.0805 38.137 68.0289 38.2104C67.9798 38.2838 67.9359 38.3624 67.8972 38.4462C67.8584 38.5301 67.8235 38.6192 67.7926 38.7136C67.7641 38.8079 67.7306 38.9128 67.6918 39.0281C67.6608 39.1251 67.6247 39.2338 67.5834 39.3544C67.542 39.4723 67.4943 39.5824 67.44 39.6846C67.3832 39.7947 67.3161 39.9048 67.2386 40.0149C67.1637 40.1249 67.0733 40.2285 66.9674 40.3254V40.3805C67.2541 40.4617 67.4917 40.5915 67.6802 40.7697C67.8713 40.9479 68.0314 41.1772 68.1606 41.4577C68.2329 41.6175 68.3117 41.7905 68.3969 41.9766C68.4847 42.1601 68.557 42.316 68.6138 42.4444C68.6939 42.62 68.7714 42.738 68.8463 42.7982C68.9212 42.8559 68.9973 42.8913 69.0748 42.9044C69.142 42.9149 69.2143 42.9254 69.2918 42.9358C69.3692 42.9437 69.4364 42.9503 69.4932 42.9555V43.2346Z" fill="#431B1E"/>
<path d="M71.2403 38.0728C71.1706 38.0387 71.0647 38.0099 70.9227 37.9863C70.7832 37.9601 70.6915 37.943 70.6476 37.9352V37.6561H75.0174V37.9352C74.9451 37.9378 74.856 37.9496 74.7501 37.9706C74.6468 37.9915 74.5693 38.0112 74.5177 38.0295C74.4299 38.061 74.3705 38.1134 74.3395 38.1868C74.3111 38.2602 74.2969 38.3401 74.2969 38.4266V42.4484C74.2969 42.5401 74.3111 42.6174 74.3395 42.6803C74.3705 42.7432 74.4299 42.7982 74.5177 42.8454C74.5616 42.869 74.639 42.8926 74.7501 42.9162C74.8637 42.9398 74.9528 42.9529 75.0174 42.9555V43.2346H72.7357V42.9555C72.7976 42.9503 72.8867 42.9424 73.003 42.9319C73.1218 42.9214 73.2031 42.9057 73.247 42.8847C73.3245 42.8533 73.3813 42.8061 73.4175 42.7432C73.4536 42.6777 73.4717 42.5938 73.4717 42.4916V37.9863H71.9919C71.9919 38.901 71.9312 39.7003 71.8098 40.3844C71.691 41.0658 71.5335 41.6241 71.3372 42.0592C71.1487 42.4811 70.9382 42.7956 70.7057 43.0027C70.4759 43.2097 70.2435 43.3133 70.0084 43.3133C69.7915 43.3133 69.6236 43.2582 69.5048 43.1481C69.386 43.0354 69.3266 42.9044 69.3266 42.755C69.3266 42.6397 69.3641 42.527 69.439 42.4169C69.5164 42.3068 69.6262 42.2518 69.7683 42.2518C69.869 42.2518 69.9555 42.2714 70.0278 42.3108C70.1001 42.3501 70.1595 42.3959 70.206 42.4484C70.2525 42.5008 70.2925 42.5558 70.3261 42.6135C70.3623 42.6685 70.392 42.7131 70.4152 42.7471C70.5133 42.6659 70.6231 42.5257 70.7445 42.3265C70.8659 42.1273 70.9859 41.8482 71.1047 41.4891C71.2184 41.151 71.3152 40.7684 71.3953 40.3412C71.4754 39.914 71.5154 39.4356 71.5154 38.9062C71.5154 38.6546 71.4973 38.4672 71.4611 38.344C71.4276 38.2182 71.354 38.1278 71.2403 38.0728Z" fill="#431B1E"/>
<path d="M81.5139 43.2346H79.24V42.9555C79.3019 42.9503 79.3923 42.9424 79.5111 42.9319C79.6325 42.9214 79.7152 42.9057 79.7591 42.8847C79.8365 42.8533 79.8934 42.8061 79.9295 42.7432C79.9657 42.6777 79.9838 42.5938 79.9838 42.4916V39.0124L77.3262 42.3776V42.468C77.3262 42.5597 77.3405 42.6344 77.3689 42.6921C77.3999 42.7471 77.4593 42.7982 77.5471 42.8454C77.591 42.869 77.6723 42.8926 77.7911 42.9162C77.9099 42.9398 78.0029 42.9529 78.07 42.9555V43.2346H75.7961V42.9555C75.858 42.9503 75.9471 42.9424 76.0634 42.9319C76.1822 42.9214 76.2635 42.9057 76.3074 42.8847C76.3849 42.8533 76.4417 42.8061 76.4779 42.7432C76.514 42.6777 76.5321 42.5938 76.5321 42.4916V38.4659C76.5321 38.382 76.5153 38.306 76.4817 38.2379C76.4482 38.1671 76.3901 38.1121 76.3074 38.0728C76.2377 38.0387 76.1525 38.0086 76.0517 37.9824C75.9536 37.9561 75.8684 37.9404 75.7961 37.9352V37.6561H78.07V37.9352C77.9977 37.9378 77.9073 37.9496 77.7989 37.9706C77.693 37.9915 77.6142 38.0112 77.5626 38.0295C77.4747 38.061 77.4153 38.1134 77.3844 38.1868C77.3559 38.2602 77.3417 38.3401 77.3417 38.4266V41.8193L79.9992 38.458C79.9992 38.3637 79.9825 38.2864 79.9489 38.2261C79.9153 38.1632 79.8572 38.1121 79.7746 38.0728C79.71 38.0413 79.6209 38.0125 79.5073 37.9863C79.3936 37.9575 79.3045 37.9404 79.24 37.9352V37.6561H81.5139V37.9352C81.4416 37.9378 81.3525 37.9496 81.2466 37.9706C81.1433 37.9915 81.0659 38.0112 81.0142 38.0295C80.9264 38.061 80.867 38.1134 80.836 38.1868C80.8076 38.2602 80.7934 38.3401 80.7934 38.4266V42.4484C80.7934 42.5401 80.8076 42.6174 80.836 42.6803C80.867 42.7432 80.9264 42.7982 81.0142 42.8454C81.0581 42.869 81.1356 42.8926 81.2466 42.9162C81.3603 42.9398 81.4494 42.9529 81.5139 42.9555V43.2346Z" fill="#431B1E"/>
<path d="M87.9795 43.2346H85.6978V42.9555C85.7598 42.9503 85.8489 42.9424 85.9651 42.9319C86.0839 42.9214 86.1652 42.9057 86.2091 42.8847C86.2866 42.8533 86.3434 42.8061 86.3796 42.7432C86.4157 42.6777 86.4338 42.5938 86.4338 42.4916V40.5063H83.8499V42.4484C83.8499 42.5401 83.8641 42.6174 83.8925 42.6803C83.9235 42.7432 83.9829 42.7982 84.0707 42.8454C84.1146 42.869 84.1921 42.8926 84.3032 42.9162C84.4168 42.9398 84.5059 42.9529 84.5705 42.9555V43.2346H82.2887V42.9555C82.3507 42.9503 82.4398 42.9424 82.556 42.9319C82.6748 42.9214 82.7562 42.9057 82.8001 42.8847C82.8776 42.8533 82.9344 42.8061 82.9705 42.7432C83.0067 42.6777 83.0248 42.5938 83.0248 42.4916V38.4659C83.0248 38.382 83.008 38.306 82.9744 38.2379C82.9408 38.1671 82.8827 38.1121 82.8001 38.0728C82.7304 38.0387 82.6451 38.0086 82.5444 37.9824C82.4463 37.9561 82.361 37.9404 82.2887 37.9352V37.6561H84.5705V37.9352C84.4981 37.9378 84.409 37.9496 84.3032 37.9706C84.1999 37.9915 84.1224 38.0112 84.0707 38.0295C83.9829 38.061 83.9235 38.1134 83.8925 38.1868C83.8641 38.2602 83.8499 38.3401 83.8499 38.4266V40.1564H86.4338V38.4659C86.4338 38.382 86.417 38.306 86.3834 38.2379C86.3499 38.1671 86.2918 38.1121 86.2091 38.0728C86.1394 38.0387 86.0542 38.0086 85.9534 37.9824C85.8553 37.9561 85.7701 37.9404 85.6978 37.9352V37.6561H87.9795V37.9352C87.9072 37.9378 87.8181 37.9496 87.7122 37.9706C87.6089 37.9915 87.5314 38.0112 87.4798 38.0295C87.392 38.061 87.3326 38.1134 87.3016 38.1868C87.2732 38.2602 87.259 38.3401 87.259 38.4266V42.4484C87.259 42.5401 87.2732 42.6174 87.3016 42.6803C87.3326 42.7432 87.392 42.7982 87.4798 42.8454C87.5237 42.869 87.6011 42.8926 87.7122 42.9162C87.8258 42.9398 87.9149 42.9529 87.9795 42.9555V43.2346Z" fill="#431B1E"/>
<path d="M94.476 43.2346H92.2021V42.9555C92.264 42.9503 92.3544 42.9424 92.4732 42.9319C92.5946 42.9214 92.6773 42.9057 92.7212 42.8847C92.7986 42.8533 92.8555 42.8061 92.8916 42.7432C92.9278 42.6777 92.9459 42.5938 92.9459 42.4916V39.0124L90.2884 42.3776V42.468C90.2884 42.5597 90.3026 42.6344 90.331 42.6921C90.362 42.7471 90.4214 42.7982 90.5092 42.8454C90.5531 42.869 90.6344 42.8926 90.7532 42.9162C90.872 42.9398 90.965 42.9529 91.0321 42.9555V43.2346H88.7582V42.9555C88.8201 42.9503 88.9092 42.9424 89.0255 42.9319C89.1443 42.9214 89.2256 42.9057 89.2695 42.8847C89.347 42.8533 89.4038 42.8061 89.44 42.7432C89.4761 42.6777 89.4942 42.5938 89.4942 42.4916V38.4659C89.4942 38.382 89.4774 38.306 89.4438 38.2379C89.4103 38.1671 89.3522 38.1121 89.2695 38.0728C89.1998 38.0387 89.1146 38.0086 89.0138 37.9824C88.9157 37.9561 88.8305 37.9404 88.7582 37.9352V37.6561H91.0321V37.9352C90.9598 37.9378 90.8694 37.9496 90.761 37.9706C90.6551 37.9915 90.5763 38.0112 90.5247 38.0295C90.4368 38.061 90.3775 38.1134 90.3465 38.1868C90.3181 38.2602 90.3038 38.3401 90.3038 38.4266V41.8193L92.9613 38.458C92.9613 38.3637 92.9446 38.2864 92.911 38.2261C92.8774 38.1632 92.8193 38.1121 92.7367 38.0728C92.6721 38.0413 92.583 38.0125 92.4694 37.9863C92.3557 37.9575 92.2666 37.9404 92.2021 37.9352V37.6561H94.476V37.9352C94.4037 37.9378 94.3146 37.9496 94.2087 37.9706C94.1054 37.9915 94.028 38.0112 93.9763 38.0295C93.8885 38.061 93.8291 38.1134 93.7981 38.1868C93.7697 38.2602 93.7555 38.3401 93.7555 38.4266V42.4484C93.7555 42.5401 93.7697 42.6174 93.7981 42.6803C93.8291 42.7432 93.8885 42.7982 93.9763 42.8454C94.0202 42.869 94.0977 42.8926 94.2087 42.9162C94.3224 42.9398 94.4115 42.9529 94.476 42.9555V43.2346Z" fill="#431B1E"/>
<path d="M100.469 43.2346H98.9543C98.8484 42.9306 98.7451 42.6541 98.6444 42.4051C98.5437 42.1535 98.4403 41.9098 98.3345 41.6739C98.1614 41.2781 97.9858 41.0108 97.8076 40.8719C97.632 40.733 97.3944 40.6635 97.0948 40.6635H96.812V42.4484C96.812 42.5348 96.8275 42.6122 96.8585 42.6803C96.8921 42.7484 96.9515 42.8035 97.0367 42.8454C97.078 42.8638 97.1542 42.886 97.2653 42.9123C97.3789 42.9385 97.4732 42.9529 97.5481 42.9555V43.2346H95.2663V42.9555C95.3257 42.9503 95.4122 42.9424 95.5259 42.9319C95.6395 42.9214 95.7196 42.9057 95.7661 42.8847C95.8435 42.8507 95.8991 42.8009 95.9326 42.7353C95.9688 42.6672 95.9869 42.586 95.9869 42.4916V38.4659C95.9869 38.3768 95.9714 38.2995 95.9404 38.234C95.912 38.1684 95.8539 38.1147 95.7661 38.0728C95.6963 38.0387 95.6137 38.0086 95.5181 37.9824C95.4226 37.9561 95.3386 37.9404 95.2663 37.9352V37.6561H97.5481V37.9352C97.4757 37.9378 97.3854 37.9496 97.2769 37.9706C97.1684 37.9915 97.0884 38.0112 97.0367 38.0295C96.9489 38.061 96.8895 38.1134 96.8585 38.1868C96.8275 38.2602 96.812 38.3401 96.812 38.4266V40.3372H97.1723C97.2678 40.3372 97.3608 40.3163 97.4512 40.2743C97.5442 40.2324 97.6294 40.1708 97.7069 40.0896C97.8179 39.9742 97.907 39.834 97.9742 39.6689C98.0413 39.5012 98.1136 39.2994 98.1911 39.0635C98.2634 38.8459 98.3383 38.6441 98.4158 38.458C98.4933 38.272 98.6069 38.1003 98.7567 37.943C98.8574 37.8382 98.9762 37.7556 99.1131 37.6954C99.25 37.6351 99.3985 37.6049 99.5586 37.6049C99.6697 37.6049 99.7665 37.6194 99.8492 37.6482C99.9318 37.6744 100.002 37.7124 100.058 37.7622C100.11 37.8068 100.149 37.8592 100.175 37.9195C100.2 37.9797 100.213 38.0453 100.213 38.116C100.213 38.1737 100.204 38.23 100.186 38.2851C100.171 38.3401 100.147 38.386 100.116 38.4227C100.08 38.4672 100.04 38.5026 99.9964 38.5288C99.9525 38.5524 99.8905 38.5642 99.8104 38.5642C99.7252 38.5642 99.6503 38.5498 99.5857 38.5209C99.5238 38.4921 99.4695 38.4528 99.423 38.403C99.3765 38.3532 99.3339 38.2955 99.2952 38.23C99.259 38.1619 99.2242 38.0937 99.1906 38.0256C99.1183 38.0754 99.0563 38.137 99.0046 38.2104C98.9556 38.2838 98.9117 38.3624 98.8729 38.4462C98.8342 38.5301 98.7993 38.6192 98.7683 38.7136C98.7399 38.8079 98.7064 38.9128 98.6676 39.0281C98.6366 39.1251 98.6005 39.2338 98.5591 39.3544C98.5178 39.4723 98.47 39.5824 98.4158 39.6846C98.359 39.7947 98.2918 39.9048 98.2144 40.0149C98.1395 40.1249 98.0491 40.2285 97.9432 40.3254V40.3805C98.2299 40.4617 98.4675 40.5915 98.656 40.7697C98.8471 40.9479 99.0072 41.1772 99.1364 41.4577C99.2087 41.6175 99.2874 41.7905 99.3727 41.9766C99.4605 42.1601 99.5328 42.316 99.5896 42.4444C99.6697 42.62 99.7471 42.738 99.822 42.7982C99.8969 42.8559 99.9731 42.8913 100.051 42.9044C100.118 42.9149 100.19 42.9254 100.268 42.9358C100.345 42.9437 100.412 42.9503 100.469 42.9555V43.2346Z" fill="#431B1E"/>
<path d="M105.892 43.2346H103.603V42.9555C103.804 42.9424 103.971 42.9162 104.103 42.8769C104.237 42.8376 104.304 42.7891 104.304 42.7314C104.304 42.7078 104.302 42.679 104.296 42.6449C104.291 42.6109 104.283 42.5807 104.273 42.5545L103.816 41.3043H101.891C101.818 41.4878 101.759 41.6477 101.713 41.784C101.669 41.9202 101.629 42.046 101.592 42.1614C101.559 42.2741 101.536 42.3658 101.523 42.4366C101.51 42.5073 101.503 42.565 101.503 42.6095C101.503 42.7144 101.585 42.7956 101.747 42.8533C101.91 42.9109 102.093 42.945 102.297 42.9555V43.2346H100.229V42.9555C100.296 42.9503 100.38 42.9358 100.481 42.9123C100.581 42.886 100.664 42.852 100.729 42.81C100.832 42.7393 100.912 42.6659 100.969 42.5899C101.026 42.5113 101.081 42.4038 101.135 42.2675C101.412 41.5677 101.716 40.7815 102.05 39.9087C102.383 39.036 102.68 38.2589 102.941 37.5774H103.25L105.083 42.3894C105.122 42.4916 105.165 42.5742 105.215 42.6371C105.264 42.7 105.332 42.7616 105.42 42.8218C105.479 42.8585 105.557 42.89 105.652 42.9162C105.748 42.9398 105.828 42.9529 105.892 42.9555V43.2346ZM103.677 40.9544L102.844 38.7922L102.026 40.9544H103.677Z" fill="#431B1E"/>
<path d="M113.222 43.2346H111.707C111.601 42.9306 111.498 42.6541 111.397 42.4051C111.297 42.1535 111.193 41.9098 111.087 41.6739C110.914 41.2781 110.739 41.0108 110.561 40.8719C110.385 40.733 110.147 40.6635 109.848 40.6635H109.565V42.4484C109.565 42.5348 109.58 42.6122 109.611 42.6803C109.645 42.7484 109.704 42.8035 109.79 42.8454C109.831 42.8638 109.907 42.886 110.018 42.9123C110.132 42.9385 110.226 42.9529 110.301 42.9555V43.2346H108.019V42.9555C108.079 42.9503 108.165 42.9424 108.279 42.9319C108.392 42.9214 108.472 42.9057 108.519 42.8847C108.596 42.8507 108.652 42.8009 108.686 42.7353C108.722 42.6672 108.74 42.586 108.74 42.4916V38.4659C108.74 38.3768 108.724 38.2995 108.693 38.234C108.665 38.1684 108.607 38.1147 108.519 38.0728C108.449 38.0387 108.367 38.0086 108.271 37.9824C108.175 37.9561 108.092 37.9404 108.019 37.9352V37.6561H110.301V37.9352C110.229 37.9378 110.138 37.9496 110.03 37.9706C109.921 37.9915 109.841 38.0112 109.79 38.0295C109.702 38.061 109.642 38.1134 109.611 38.1868C109.58 38.2602 109.565 38.3401 109.565 38.4266V40.3372H109.925C110.021 40.3372 110.114 40.3163 110.204 40.2743C110.297 40.2324 110.382 40.1708 110.46 40.0896C110.571 39.9742 110.66 39.834 110.727 39.6689C110.794 39.5012 110.867 39.2994 110.944 39.0635C111.016 38.8459 111.091 38.6441 111.169 38.458C111.246 38.272 111.36 38.1003 111.51 37.943C111.61 37.8382 111.729 37.7556 111.866 37.6954C112.003 37.6351 112.151 37.6049 112.312 37.6049C112.423 37.6049 112.519 37.6194 112.602 37.6482C112.685 37.6744 112.754 37.7124 112.811 37.7622C112.863 37.8068 112.902 37.8592 112.927 37.9195C112.953 37.9797 112.966 38.0453 112.966 38.116C112.966 38.1737 112.957 38.23 112.939 38.2851C112.924 38.3401 112.9 38.386 112.869 38.4227C112.833 38.4672 112.793 38.5026 112.749 38.5288C112.705 38.5524 112.643 38.5642 112.563 38.5642C112.478 38.5642 112.403 38.5498 112.339 38.5209C112.277 38.4921 112.222 38.4528 112.176 38.403C112.129 38.3532 112.087 38.2955 112.048 38.23C112.012 38.1619 111.977 38.0937 111.944 38.0256C111.871 38.0754 111.809 38.137 111.758 38.2104C111.708 38.2838 111.665 38.3624 111.626 38.4462C111.587 38.5301 111.552 38.6192 111.521 38.7136C111.493 38.8079 111.459 38.9128 111.421 39.0281C111.39 39.1251 111.353 39.2338 111.312 39.3544C111.271 39.4723 111.223 39.5824 111.169 39.6846C111.112 39.7947 111.045 39.9048 110.967 40.0149C110.892 40.1249 110.802 40.2285 110.696 40.3254V40.3805C110.983 40.4617 111.22 40.5915 111.409 40.7697C111.6 40.9479 111.76 41.1772 111.889 41.4577C111.962 41.6175 112.04 41.7905 112.126 41.9766C112.213 42.1601 112.286 42.316 112.343 42.4444C112.423 42.62 112.5 42.738 112.575 42.7982C112.65 42.8559 112.726 42.8913 112.804 42.9044C112.871 42.9149 112.943 42.9254 113.02 42.9358C113.098 42.9437 113.165 42.9503 113.222 42.9555V43.2346Z" fill="#431B1E"/>
<path d="M117.727 39.032C117.727 39.3229 117.67 39.5811 117.557 39.8065C117.446 40.0293 117.291 40.214 117.092 40.3608C116.896 40.5076 116.68 40.615 116.445 40.6832C116.21 40.7513 115.961 40.7854 115.697 40.7854H115.081V42.4759C115.081 42.5676 115.096 42.6489 115.124 42.7196C115.155 42.7878 115.217 42.8402 115.31 42.8769C115.356 42.8952 115.438 42.9123 115.554 42.928C115.673 42.9437 115.781 42.9529 115.879 42.9555V43.2346H113.52V42.9555C113.582 42.9503 113.671 42.9411 113.787 42.928C113.906 42.9149 113.989 42.8978 114.035 42.8769C114.113 42.8428 114.168 42.793 114.202 42.7275C114.238 42.662 114.256 42.5781 114.256 42.4759V38.4502C114.256 38.3584 114.243 38.2759 114.217 38.2025C114.192 38.1291 114.131 38.0741 114.035 38.0374C113.937 38.0033 113.839 37.9797 113.741 37.9666C113.645 37.9509 113.563 37.9404 113.493 37.9352V37.6561H116.003C116.515 37.6561 116.929 37.7819 117.247 38.0335C117.567 38.2824 117.727 38.6153 117.727 39.032ZM116.55 39.9834C116.637 39.8576 116.696 39.7279 116.724 39.5942C116.752 39.4579 116.767 39.336 116.767 39.2286C116.767 39.0792 116.748 38.9272 116.712 38.7726C116.679 38.6179 116.619 38.4829 116.534 38.3676C116.444 38.2444 116.325 38.1488 116.178 38.0806C116.03 38.0125 115.847 37.9784 115.628 37.9784H115.081V40.4434H115.477C115.755 40.4434 115.981 40.4001 116.154 40.3136C116.33 40.2245 116.462 40.1144 116.55 39.9834Z" fill="#431B1E"/>
<path d="M123.488 43.2346H121.198V42.9555C121.4 42.9424 121.566 42.9162 121.698 42.8769C121.832 42.8376 121.899 42.7891 121.899 42.7314C121.899 42.7078 121.897 42.679 121.892 42.6449C121.887 42.6109 121.879 42.5807 121.868 42.5545L121.411 41.3043H119.486C119.414 41.4878 119.354 41.6477 119.308 41.784C119.264 41.9202 119.224 42.046 119.188 42.1614C119.154 42.2741 119.131 42.3658 119.118 42.4366C119.105 42.5073 119.099 42.565 119.099 42.6095C119.099 42.7144 119.18 42.7956 119.343 42.8533C119.505 42.9109 119.689 42.945 119.893 42.9555V43.2346H117.824V42.9555C117.891 42.9503 117.975 42.9358 118.076 42.9123C118.177 42.886 118.259 42.852 118.324 42.81C118.427 42.7393 118.507 42.6659 118.564 42.5899C118.621 42.5113 118.676 42.4038 118.731 42.2675C119.007 41.5677 119.312 40.7815 119.645 39.9087C119.978 39.036 120.275 38.2589 120.536 37.5774H120.846L122.678 42.3894C122.717 42.4916 122.761 42.5742 122.81 42.6371C122.859 42.7 122.927 42.7616 123.015 42.8218C123.075 42.8585 123.152 42.89 123.248 42.9162C123.343 42.9398 123.423 42.9529 123.488 42.9555V43.2346ZM121.272 40.9544L120.439 38.7922L119.622 40.9544H121.272Z" fill="#431B1E"/>
<path d="M126.107 43.3644C125.779 43.3644 125.463 43.2988 125.161 43.1678C124.862 43.0367 124.596 42.848 124.363 42.6017C124.133 42.3553 123.95 42.0552 123.813 41.7014C123.676 41.345 123.608 40.944 123.608 40.4984C123.608 40.0529 123.675 39.6492 123.809 39.2876C123.944 38.9233 124.13 38.6101 124.367 38.348C124.602 38.0885 124.88 37.888 125.2 37.7465C125.52 37.6049 125.862 37.5342 126.227 37.5342C126.498 37.5342 126.743 37.5683 126.963 37.6364C127.182 37.7045 127.391 37.8002 127.59 37.9234L127.749 37.6561H128.059L128.094 39.6453H127.776C127.735 39.4514 127.673 39.2417 127.59 39.0163C127.508 38.7883 127.411 38.5956 127.3 38.4384C127.176 38.2602 127.029 38.1213 126.858 38.0217C126.688 37.9195 126.493 37.8683 126.273 37.8683C126.023 37.8683 125.789 37.9247 125.572 38.0374C125.358 38.1501 125.172 38.3165 125.014 38.5367C124.864 38.749 124.747 39.0189 124.662 39.3465C124.576 39.6741 124.534 40.0398 124.534 40.4434C124.534 40.7998 124.578 41.1274 124.665 41.4262C124.756 41.7224 124.884 41.9831 125.049 42.2085C125.214 42.4313 125.409 42.6056 125.634 42.7314C125.861 42.8572 126.114 42.9201 126.393 42.9201C126.602 42.9201 126.795 42.8874 126.97 42.8218C127.146 42.7537 127.298 42.6646 127.428 42.5545C127.557 42.4392 127.67 42.3081 127.768 42.1614C127.867 42.0146 127.947 41.8547 128.009 41.6817L128.299 41.8233C128.077 42.3763 127.783 42.772 127.416 43.0105C127.049 43.2464 126.613 43.3644 126.107 43.3644Z" fill="#431B1E"/>
<path d="M133.223 38.3165C133.466 38.5734 133.655 38.8839 133.792 39.2482C133.929 39.6099 133.998 40.0109 133.998 40.4512C133.998 40.8942 133.928 41.2965 133.788 41.6582C133.649 42.0198 133.455 42.3278 133.207 42.582C132.967 42.8336 132.688 43.0276 132.371 43.1639C132.053 43.3001 131.715 43.3683 131.356 43.3683C130.973 43.3683 130.62 43.2962 130.294 43.1521C129.971 43.0053 129.694 42.8022 129.461 42.5427C129.229 42.2885 129.046 41.9805 128.911 41.6188C128.78 41.2545 128.714 40.8653 128.714 40.4512C128.714 39.9978 128.783 39.5942 128.923 39.2404C129.062 38.8839 129.255 38.576 129.5 38.3165C129.743 38.0597 130.024 37.8631 130.345 37.7268C130.667 37.5905 131.004 37.5224 131.356 37.5224C131.72 37.5224 132.063 37.5918 132.386 37.7307C132.709 37.8697 132.988 38.0649 133.223 38.3165ZM132.646 42.2714C132.79 42.0329 132.895 41.763 132.959 41.4616C133.027 41.1602 133.06 40.8234 133.06 40.4512C133.06 40.0686 133.023 39.7174 132.948 39.3976C132.876 39.0779 132.768 38.8053 132.626 38.5799C132.484 38.3571 132.306 38.1842 132.092 38.061C131.877 37.9352 131.632 37.8723 131.356 37.8723C131.046 37.8723 130.782 37.9443 130.565 38.0885C130.348 38.2326 130.172 38.4253 130.035 38.6664C129.906 38.897 129.809 39.167 129.744 39.4763C129.682 39.7855 129.651 40.1105 129.651 40.4512C129.651 40.8286 129.685 41.1694 129.752 41.4734C129.819 41.7774 129.925 42.0474 130.07 42.2832C130.209 42.5139 130.385 42.6947 130.596 42.8258C130.808 42.9542 131.061 43.0184 131.356 43.0184C131.632 43.0184 131.881 42.9529 132.103 42.8218C132.325 42.6908 132.506 42.5073 132.646 42.2714Z" fill="#431B1E"/>
<path d="M139.154 39.1696H138.887C138.863 39.0753 138.821 38.9639 138.759 38.8355C138.699 38.7044 138.632 38.5812 138.557 38.4659C138.48 38.3453 138.395 38.2405 138.302 38.1514C138.211 38.0597 138.123 38.0073 138.038 37.9941C137.958 37.9837 137.857 37.9758 137.736 37.9706C137.615 37.9653 137.502 37.9627 137.399 37.9627H137.174V42.4248C137.174 42.5113 137.192 42.5912 137.229 42.6646C137.265 42.7353 137.328 42.7904 137.418 42.8297C137.465 42.848 137.562 42.8729 137.709 42.9044C137.859 42.9358 137.975 42.9529 138.058 42.9555V43.2346H135.462V42.9555C135.534 42.9503 135.644 42.9398 135.791 42.924C135.941 42.9083 136.044 42.8887 136.101 42.8651C136.186 42.831 136.248 42.7825 136.287 42.7196C136.328 42.6541 136.349 42.5676 136.349 42.4601V37.9627H136.124C136.044 37.9627 135.945 37.9653 135.826 37.9706C135.707 37.9732 135.594 37.981 135.485 37.9941C135.4 38.0046 135.311 38.057 135.218 38.1514C135.128 38.2431 135.044 38.348 134.966 38.4659C134.889 38.5838 134.82 38.7096 134.761 38.8433C134.701 38.9744 134.66 39.0831 134.637 39.1696H134.366V37.6561H139.154V39.1696Z" fill="#431B1E"/>
<path d="M143.101 41.5245C143.101 41.168 142.984 40.885 142.749 40.6753C142.514 40.463 142.205 40.3569 141.823 40.3569C141.645 40.3569 141.503 40.3595 141.397 40.3647C141.294 40.3674 141.215 40.37 141.161 40.3726V42.4169C141.161 42.5899 141.211 42.7183 141.312 42.8022C141.412 42.8834 141.611 42.924 141.908 42.924C142.293 42.924 142.587 42.8048 142.791 42.5663C142.998 42.3252 143.101 41.9779 143.101 41.5245ZM144.062 41.5913C144.062 41.8718 144.007 42.1181 143.896 42.3304C143.787 42.5427 143.64 42.7157 143.454 42.8494C143.278 42.9752 143.081 43.0708 142.861 43.1363C142.644 43.2019 142.421 43.2346 142.191 43.2346H139.588V42.9555C139.65 42.9503 139.74 42.9398 139.859 42.924C139.978 42.9057 140.063 42.8847 140.115 42.8611C140.195 42.8245 140.251 42.776 140.285 42.7157C140.319 42.6528 140.335 42.5728 140.335 42.4759V38.4816C140.335 38.3925 140.32 38.3139 140.289 38.2458C140.26 38.1776 140.202 38.1226 140.115 38.0806C140.055 38.0492 139.971 38.019 139.863 37.9902C139.757 37.9588 139.669 37.9404 139.599 37.9352V37.6561H141.928V37.9352C141.855 37.9378 141.76 37.9509 141.641 37.9745C141.525 37.9981 141.441 38.019 141.389 38.0374C141.301 38.0688 141.241 38.1226 141.207 38.1986C141.176 38.2746 141.161 38.3558 141.161 38.4423V40.0266C141.287 40.024 141.414 40.0214 141.54 40.0188C141.667 40.0162 141.789 40.0149 141.908 40.0149C142.187 40.0149 142.458 40.0424 142.722 40.0974C142.985 40.1498 143.218 40.2389 143.419 40.3647C143.618 40.4879 143.774 40.6517 143.888 40.8562C144.004 41.058 144.062 41.303 144.062 41.5913ZM144.957 38.4659C144.957 38.382 144.94 38.306 144.907 38.2379C144.873 38.1671 144.815 38.1121 144.732 38.0728C144.663 38.0387 144.577 38.0086 144.477 37.9824C144.378 37.9561 144.293 37.9404 144.221 37.9352V37.6561H146.503V37.9352C146.43 37.9378 146.341 37.9496 146.235 37.9706C146.132 37.9915 146.055 38.0112 146.003 38.0295C145.915 38.061 145.856 38.1134 145.825 38.1868C145.796 38.2602 145.782 38.3401 145.782 38.4266V42.4484C145.782 42.5401 145.796 42.6174 145.825 42.6803C145.856 42.7432 145.915 42.7982 146.003 42.8454C146.047 42.869 146.124 42.8926 146.235 42.9162C146.349 42.9398 146.438 42.9529 146.503 42.9555V43.2346H144.221V42.9555C144.283 42.9503 144.372 42.9424 144.488 42.9319C144.607 42.9214 144.688 42.9057 144.732 42.8847C144.81 42.8533 144.867 42.8061 144.903 42.7432C144.939 42.6777 144.957 42.5938 144.957 42.4916V38.4659Z" fill="#431B1E"/>
<path d="M154.909 43.2346H152.635V42.9555C152.697 42.9503 152.787 42.9424 152.906 42.9319C153.028 42.9214 153.11 42.9057 153.154 42.8847C153.232 42.8533 153.288 42.8061 153.325 42.7432C153.361 42.6777 153.379 42.5938 153.379 42.4916V39.0124L150.721 42.3776V42.468C150.721 42.5597 150.736 42.6344 150.764 42.6921C150.795 42.7471 150.854 42.7982 150.942 42.8454C150.986 42.869 151.067 42.8926 151.186 42.9162C151.305 42.9398 151.398 42.9529 151.465 42.9555V43.2346H149.191V42.9555C149.253 42.9503 149.342 42.9424 149.458 42.9319C149.577 42.9214 149.659 42.9057 149.702 42.8847C149.78 42.8533 149.837 42.8061 149.873 42.7432C149.909 42.6777 149.927 42.5938 149.927 42.4916V38.4659C149.927 38.382 149.91 38.306 149.877 38.2379C149.843 38.1671 149.785 38.1121 149.702 38.0728C149.633 38.0387 149.548 38.0086 149.447 37.9824C149.349 37.9561 149.263 37.9404 149.191 37.9352V37.6561H151.465V37.9352C151.393 37.9378 151.302 37.9496 151.194 37.9706C151.088 37.9915 151.009 38.0112 150.958 38.0295C150.87 38.061 150.81 38.1134 150.779 38.1868C150.751 38.2602 150.737 38.3401 150.737 38.4266V41.8193L153.394 38.458C153.394 38.3637 153.378 38.2864 153.344 38.2261C153.31 38.1632 153.252 38.1121 153.17 38.0728C153.105 38.0413 153.016 38.0125 152.902 37.9863C152.789 37.9575 152.7 37.9404 152.635 37.9352V37.6561H154.909V37.9352C154.837 37.9378 154.748 37.9496 154.642 37.9706C154.538 37.9915 154.461 38.0112 154.409 38.0295C154.321 38.061 154.262 38.1134 154.231 38.1868C154.203 38.2602 154.188 38.3401 154.188 38.4266V42.4484C154.188 42.5401 154.203 42.6174 154.231 42.6803C154.262 42.7432 154.321 42.7982 154.409 42.8454C154.453 42.869 154.531 42.8926 154.642 42.9162C154.755 42.9398 154.844 42.9529 154.909 42.9555V43.2346Z" fill="#431B1E"/>
<path d="M161.169 40.5574C161.329 40.6675 161.46 40.8051 161.561 40.9702C161.661 41.1353 161.712 41.3489 161.712 41.611C161.712 42.1273 161.491 42.5493 161.049 42.8769C160.608 43.2019 160.037 43.3644 159.337 43.3644C159.017 43.3644 158.735 43.325 158.492 43.2464C158.25 43.1704 158.047 43.0721 157.884 42.9516C157.719 42.8258 157.594 42.6842 157.508 42.527C157.423 42.3671 157.381 42.2007 157.381 42.0277C157.381 41.8809 157.419 41.7512 157.497 41.6385C157.574 41.5258 157.687 41.4695 157.834 41.4695C158.002 41.4695 158.126 41.5114 158.206 41.5953C158.288 41.6791 158.33 41.7813 158.33 41.9019C158.33 41.991 158.312 42.1076 158.275 42.2518C158.239 42.3959 158.213 42.4955 158.198 42.5506C158.219 42.582 158.259 42.6253 158.318 42.6803C158.38 42.7353 158.458 42.7878 158.551 42.8376C158.641 42.89 158.752 42.9358 158.884 42.9752C159.018 43.0118 159.168 43.0302 159.333 43.0302C159.522 43.0302 159.704 43.004 159.879 42.9516C160.055 42.8965 160.206 42.814 160.333 42.7039C160.464 42.5886 160.568 42.4457 160.642 42.2754C160.72 42.1024 160.759 41.8888 160.759 41.6346C160.759 41.5009 160.741 41.3646 160.704 41.2257C160.671 41.0842 160.611 40.9623 160.526 40.8601C160.436 40.7526 160.313 40.6661 160.158 40.6006C160.006 40.5351 159.81 40.5023 159.569 40.5023H159.012V40.0817H159.422C159.822 40.0817 160.11 39.9782 160.286 39.7711C160.462 39.5641 160.549 39.2574 160.549 38.8512C160.549 38.7123 160.533 38.5838 160.499 38.4659C160.466 38.348 160.413 38.2458 160.34 38.1593C160.265 38.0702 160.167 37.9994 160.046 37.947C159.927 37.8946 159.78 37.8683 159.604 37.8683C159.359 37.8683 159.15 37.9181 158.977 38.0177C158.804 38.1147 158.655 38.251 158.531 38.4266C158.415 38.5891 158.321 38.7817 158.248 39.0045C158.176 39.2247 158.115 39.4383 158.066 39.6453H157.749L157.78 37.6561H158.09L158.252 37.9234C158.415 37.8212 158.624 37.7307 158.88 37.6521C159.138 37.5735 159.407 37.5342 159.686 37.5342C159.977 37.5342 160.252 37.5722 160.511 37.6482C160.769 37.7216 160.986 37.8487 161.162 38.0295C161.291 38.1684 161.377 38.3113 161.421 38.458C161.465 38.6048 161.487 38.728 161.487 38.8276C161.487 38.9455 161.466 39.074 161.425 39.2129C161.384 39.3518 161.31 39.4828 161.204 39.606C161.101 39.7292 160.964 39.8432 160.794 39.948C160.623 40.0502 160.413 40.1328 160.162 40.1957V40.2468C160.314 40.252 160.482 40.2796 160.666 40.3294C160.852 40.3792 161.019 40.4552 161.169 40.5574Z" fill="#431B1E"/>
<path d="M165.841 42.5388V37.9863H164.299C164.299 38.9219 164.183 39.8262 163.951 40.6989C163.721 41.5717 163.43 42.3029 163.079 42.8926H165.481C165.605 42.8926 165.695 42.8638 165.752 42.8061C165.812 42.7484 165.841 42.6593 165.841 42.5388ZM163.215 43.2228C163.111 43.2359 163.011 43.2949 162.913 43.3997C162.817 43.5072 162.73 43.6291 162.653 43.7654C162.581 43.8912 162.516 44.0301 162.459 44.1821C162.402 44.3367 162.362 44.4547 162.339 44.5359H162.049V42.8926H162.583C162.896 42.4156 163.18 41.7656 163.436 40.9427C163.694 40.1197 163.823 39.3872 163.823 38.745C163.823 38.5485 163.805 38.3991 163.769 38.2969C163.735 38.192 163.669 38.116 163.571 38.0688C163.507 38.0374 163.405 38.0099 163.265 37.9863C163.126 37.9601 163.024 37.943 162.959 37.9352V37.6561H167.387V37.9352C167.315 37.9378 167.225 37.9496 167.12 37.9706C167.016 37.9915 166.939 38.0112 166.887 38.0295C166.799 38.061 166.74 38.1134 166.709 38.1868C166.681 38.2602 166.666 38.3401 166.666 38.4266V42.5073C166.666 42.6541 166.703 42.7563 166.775 42.814C166.847 42.869 166.963 42.8965 167.123 42.8965H167.449V44.5359H167.158C167.133 44.4337 167.099 44.321 167.058 44.1978C167.016 44.0746 166.952 43.9305 166.864 43.7654C166.786 43.6186 166.705 43.4954 166.62 43.3958C166.535 43.2962 166.435 43.2386 166.322 43.2228H163.215Z" fill="#431B1E"/>
<path d="M172.605 38.3165C172.848 38.5734 173.038 38.8839 173.175 39.2482C173.311 39.6099 173.38 40.0109 173.38 40.4512C173.38 40.8942 173.31 41.2965 173.171 41.6582C173.031 42.0198 172.837 42.3278 172.59 42.582C172.349 42.8336 172.07 43.0276 171.753 43.1639C171.435 43.3001 171.097 43.3683 170.738 43.3683C170.356 43.3683 170.002 43.2962 169.676 43.1521C169.354 43.0053 169.076 42.8022 168.843 42.5427C168.611 42.2885 168.428 41.9805 168.293 41.6188C168.162 41.2545 168.096 40.8653 168.096 40.4512C168.096 39.9978 168.166 39.5942 168.305 39.2404C168.444 38.8839 168.637 38.576 168.882 38.3165C169.125 38.0597 169.407 37.8631 169.727 37.7268C170.05 37.5905 170.387 37.5224 170.738 37.5224C171.102 37.5224 171.445 37.5918 171.768 37.7307C172.091 37.8697 172.37 38.0649 172.605 38.3165ZM172.028 42.2714C172.172 42.0329 172.277 41.763 172.342 41.4616C172.409 41.1602 172.442 40.8234 172.442 40.4512C172.442 40.0686 172.405 39.7174 172.33 39.3976C172.258 39.0779 172.151 38.8053 172.008 38.5799C171.866 38.3571 171.688 38.1842 171.474 38.061C171.26 37.9352 171.014 37.8723 170.738 37.8723C170.428 37.8723 170.164 37.9443 169.948 38.0885C169.731 38.2326 169.554 38.4253 169.417 38.6664C169.288 38.897 169.191 39.167 169.126 39.4763C169.064 39.7855 169.033 40.1105 169.033 40.4512C169.033 40.8286 169.067 41.1694 169.134 41.4734C169.201 41.7774 169.307 42.0474 169.452 42.2832C169.591 42.5139 169.767 42.6947 169.979 42.8258C170.19 42.9542 170.443 43.0184 170.738 43.0184C171.014 43.0184 171.263 42.9529 171.485 42.8218C171.708 42.6908 171.888 42.5073 172.028 42.2714Z" fill="#431B1E"/>
<path d="M178.276 39.032C178.276 39.3229 178.22 39.5811 178.106 39.8065C177.995 40.0293 177.84 40.214 177.641 40.3608C177.445 40.5076 177.229 40.615 176.994 40.6832C176.759 40.7513 176.51 40.7854 176.247 40.7854H175.631V42.4759C175.631 42.5676 175.645 42.6489 175.673 42.7196C175.704 42.7878 175.766 42.8402 175.859 42.8769C175.906 42.8952 175.987 42.9123 176.103 42.928C176.222 42.9437 176.33 42.9529 176.429 42.9555V43.2346H174.069V42.9555C174.131 42.9503 174.22 42.9411 174.337 42.928C174.455 42.9149 174.538 42.8978 174.585 42.8769C174.662 42.8428 174.718 42.793 174.751 42.7275C174.787 42.662 174.805 42.5781 174.805 42.4759V38.4502C174.805 38.3584 174.793 38.2759 174.767 38.2025C174.741 38.1291 174.68 38.0741 174.585 38.0374C174.486 38.0033 174.388 37.9797 174.29 37.9666C174.195 37.9509 174.112 37.9404 174.042 37.9352V37.6561H176.553C177.064 37.6561 177.478 37.7819 177.796 38.0335C178.116 38.2824 178.276 38.6153 178.276 39.032ZM177.099 39.9834C177.187 39.8576 177.245 39.7279 177.273 39.5942C177.302 39.4579 177.316 39.336 177.316 39.2286C177.316 39.0792 177.298 38.9272 177.261 38.7726C177.228 38.6179 177.169 38.4829 177.083 38.3676C176.993 38.2444 176.874 38.1488 176.727 38.0806C176.58 38.0125 176.396 37.9784 176.177 37.9784H175.631V40.4434H176.026C176.305 40.4434 176.531 40.4001 176.704 40.3136C176.879 40.2245 177.011 40.1144 177.099 39.9834Z" fill="#431B1E"/>
<path d="M183.351 38.3165C183.594 38.5734 183.784 38.8839 183.921 39.2482C184.058 39.6099 184.126 40.0109 184.126 40.4512C184.126 40.8942 184.056 41.2965 183.917 41.6582C183.777 42.0198 183.584 42.3278 183.336 42.582C183.096 42.8336 182.817 43.0276 182.499 43.1639C182.181 43.3001 181.843 43.3683 181.484 43.3683C181.102 43.3683 180.748 43.2962 180.423 43.1521C180.1 43.0053 179.822 42.8022 179.59 42.5427C179.357 42.2885 179.174 41.9805 179.04 41.6188C178.908 41.2545 178.842 40.8653 178.842 40.4512C178.842 39.9978 178.912 39.5942 179.051 39.2404C179.191 38.8839 179.383 38.576 179.628 38.3165C179.871 38.0597 180.153 37.8631 180.473 37.7268C180.796 37.5905 181.133 37.5224 181.484 37.5224C181.848 37.5224 182.192 37.5918 182.515 37.7307C182.837 37.8697 183.116 38.0649 183.351 38.3165ZM182.774 42.2714C182.919 42.0329 183.023 41.763 183.088 41.4616C183.155 41.1602 183.189 40.8234 183.189 40.4512C183.189 40.0686 183.151 39.7174 183.076 39.3976C183.004 39.0779 182.897 38.8053 182.755 38.5799C182.613 38.3571 182.434 38.1842 182.22 38.061C182.006 37.9352 181.76 37.8723 181.484 37.8723C181.174 37.8723 180.911 37.9443 180.694 38.0885C180.477 38.2326 180.3 38.4253 180.163 38.6664C180.034 38.897 179.937 39.167 179.873 39.4763C179.811 39.7855 179.78 40.1105 179.78 40.4512C179.78 40.8286 179.813 41.1694 179.88 41.4734C179.947 41.7774 180.053 42.0474 180.198 42.2832C180.337 42.5139 180.513 42.6947 180.725 42.8258C180.937 42.9542 181.19 43.0184 181.484 43.0184C181.76 43.0184 182.01 42.9529 182.232 42.8218C182.454 42.6908 182.635 42.5073 182.774 42.2714Z" fill="#431B1E"/>
<path d="M188.713 40.636C188.873 40.7461 189.006 40.8902 189.112 41.0685C189.218 41.2467 189.271 41.4629 189.271 41.7171C189.271 41.9766 189.215 42.202 189.104 42.3933C188.993 42.5846 188.848 42.7419 188.67 42.8651C188.497 42.9856 188.301 43.0774 188.081 43.1403C187.864 43.2032 187.64 43.2346 187.407 43.2346H184.804V42.9555C184.866 42.9503 184.956 42.9398 185.075 42.924C185.194 42.9057 185.279 42.8847 185.331 42.8611C185.411 42.8245 185.468 42.776 185.501 42.7157C185.535 42.6528 185.552 42.5728 185.552 42.4759V38.4659C185.552 38.3768 185.536 38.2982 185.505 38.23C185.477 38.1619 185.419 38.1068 185.331 38.0649C185.253 38.0256 185.167 37.9955 185.071 37.9745C184.976 37.9535 184.896 37.9404 184.831 37.9352V37.6561H187.369C187.565 37.6561 187.752 37.6757 187.93 37.715C188.111 37.7543 188.283 37.8238 188.445 37.9234C188.598 38.0151 188.723 38.1396 188.821 38.2969C188.919 38.4541 188.968 38.6454 188.968 38.8708C188.968 39.0674 188.934 39.243 188.864 39.3976C188.794 39.5496 188.696 39.6807 188.569 39.7908C188.451 39.8956 188.314 39.9847 188.159 40.0581C188.006 40.1289 187.841 40.1839 187.663 40.2232V40.2586C187.82 40.2769 187.996 40.3176 188.19 40.3805C188.386 40.4408 188.56 40.5259 188.713 40.636ZM187.779 39.7947C187.875 39.682 187.941 39.5588 187.977 39.4252C188.015 39.2915 188.035 39.1329 188.035 38.9495C188.035 38.6428 187.952 38.403 187.787 38.23C187.622 38.0544 187.361 37.9666 187.004 37.9666C186.922 37.9666 186.817 37.9692 186.691 37.9745C186.567 37.9771 186.462 37.9797 186.377 37.9824V40.1249H186.869C187.081 40.1249 187.261 40.0974 187.411 40.0424C187.564 39.9873 187.686 39.9048 187.779 39.7947ZM188.314 41.5756C188.314 41.2454 188.204 40.9741 187.984 40.7618C187.768 40.5495 187.456 40.4434 187.051 40.4434C186.886 40.4434 186.746 40.446 186.632 40.4512C186.519 40.4539 186.434 40.4565 186.377 40.4591V42.4248C186.377 42.5899 186.443 42.7144 186.574 42.7982C186.706 42.8821 186.889 42.924 187.124 42.924C187.509 42.924 187.804 42.81 188.008 42.582C188.212 42.354 188.314 42.0185 188.314 41.5756Z" fill="#431B1E"/>
<path d="M193.524 41.5245C193.524 41.168 193.405 40.885 193.168 40.6753C192.933 40.463 192.62 40.3569 192.23 40.3569C192.052 40.3569 191.91 40.3595 191.804 40.3647C191.701 40.3674 191.622 40.37 191.568 40.3726V42.4169C191.568 42.5899 191.618 42.7183 191.719 42.8022C191.82 42.8834 192.019 42.924 192.316 42.924C192.708 42.924 193.008 42.8048 193.214 42.5663C193.421 42.3252 193.524 41.9779 193.524 41.5245ZM194.485 41.5913C194.485 41.8718 194.429 42.1181 194.318 42.3304C194.21 42.5427 194.063 42.7157 193.877 42.8494C193.701 42.9778 193.502 43.0747 193.28 43.1403C193.061 43.2032 192.833 43.2346 192.598 43.2346H189.995V42.9555C190.057 42.9503 190.147 42.9398 190.266 42.924C190.385 42.9057 190.47 42.8847 190.522 42.8611C190.602 42.8245 190.659 42.776 190.692 42.7157C190.726 42.6528 190.743 42.5728 190.743 42.4759V38.4816C190.743 38.3925 190.727 38.3139 190.696 38.2458C190.668 38.1776 190.61 38.1226 190.522 38.0806C190.462 38.0492 190.379 38.019 190.27 37.9902C190.164 37.9588 190.076 37.9404 190.007 37.9352V37.6561H192.335V37.9352C192.263 37.9378 192.167 37.9509 192.048 37.9745C191.932 37.9981 191.848 38.019 191.796 38.0374C191.709 38.0688 191.648 38.1226 191.614 38.1986C191.583 38.2746 191.568 38.3558 191.568 38.4423V40.0266C191.694 40.024 191.821 40.0214 191.947 40.0188C192.074 40.0162 192.197 40.0149 192.316 40.0149C192.607 40.0149 192.884 40.0424 193.145 40.0974C193.408 40.1498 193.64 40.2389 193.842 40.3647C194.041 40.4879 194.197 40.6517 194.311 40.8562C194.427 41.058 194.485 41.303 194.485 41.5913Z" fill="#431B1E"/>
<path d="M199.885 43.2346H197.561V42.9555C197.623 42.9503 197.712 42.9411 197.828 42.928C197.947 42.9149 198.03 42.8978 198.076 42.8769C198.153 42.8428 198.209 42.793 198.243 42.7275C198.279 42.662 198.297 42.5781 198.297 42.4759V40.7068H197.933C197.636 40.7068 197.406 40.7684 197.243 40.8915C197.08 41.0147 196.909 41.2807 196.728 41.6896C196.612 41.9543 196.508 42.1981 196.418 42.4208C196.33 42.6436 196.229 42.9149 196.116 43.2346H194.609V42.9555C194.668 42.9476 194.734 42.9398 194.806 42.9319C194.881 42.924 194.955 42.9136 195.027 42.9005C195.133 42.8795 195.218 42.8402 195.283 42.7825C195.347 42.7222 195.419 42.6095 195.496 42.4444C195.563 42.295 195.642 42.1234 195.732 41.9294C195.823 41.7355 195.892 41.5835 195.941 41.4734C196.058 41.2139 196.193 41.016 196.348 40.8798C196.506 40.7435 196.703 40.6347 196.941 40.5534V40.4984C196.758 40.4591 196.585 40.4054 196.422 40.3372C196.262 40.2665 196.12 40.176 195.996 40.066C195.872 39.9533 195.774 39.8183 195.701 39.661C195.632 39.5012 195.597 39.3151 195.597 39.1028C195.597 38.8669 195.644 38.6585 195.74 38.4777C195.836 38.2969 195.965 38.1448 196.127 38.0217C196.282 37.9037 196.466 37.8133 196.678 37.7504C196.889 37.6875 197.11 37.6561 197.34 37.6561H199.885V37.9352C199.813 37.9378 199.719 37.9509 199.602 37.9745C199.486 37.9981 199.401 38.019 199.347 38.0374C199.259 38.0688 199.199 38.1226 199.168 38.1986C199.137 38.2746 199.122 38.3558 199.122 38.4423V42.4759C199.122 42.5676 199.136 42.6489 199.165 42.7196C199.193 42.7878 199.254 42.8402 199.347 42.8769C199.393 42.8952 199.474 42.9123 199.591 42.928C199.707 42.9437 199.805 42.9529 199.885 42.9555V43.2346ZM198.297 40.3687V37.9745H197.631C197.295 37.9745 197.027 38.0846 196.829 38.3047C196.632 38.5223 196.534 38.8053 196.534 39.1539C196.534 39.5523 196.648 39.855 196.875 40.062C197.102 40.2665 197.403 40.3687 197.778 40.3687H198.297Z" fill="#431B1E"/>
</svg>
