<svg width="24" height="24" viewBox="0 0 24 24" fill="none" xmlns="http://www.w3.org/2000/svg">
<g clip-path="url(#clip0_10:46)">
<path d="M20.4837 3.51306C15.7967 -1.17252 8.19865 -1.17139 3.51307 3.51564C-1.1725 8.20267 -1.17138 15.8006 3.51565 20.4862C8.20268 25.1718 15.8007 25.1707 20.4862 20.4836C22.7365 18.2326 24.0004 15.1799 23.9997 11.9971C23.999 8.81471 22.7343 5.76296 20.4837 3.51306ZM18.1732 16.7155C18.1727 16.716 18.1722 16.7166 18.1716 16.7171V16.7131L17.5636 17.3171C16.7773 18.1134 15.6321 18.441 14.5436 18.1811C13.447 17.8876 12.4045 17.4203 11.4556 16.7971C10.5741 16.2337 9.75715 15.5751 9.01962 14.8331C8.34101 14.1594 7.73135 13.4198 7.1996 12.6251C6.61798 11.77 6.15762 10.8385 5.8316 9.85707C5.45787 8.70413 5.76757 7.43903 6.63162 6.58909L7.34361 5.8771C7.54156 5.67826 7.86321 5.67756 8.06201 5.87551C8.06253 5.87603 8.06309 5.87654 8.06361 5.8771L10.3116 8.12509C10.5104 8.32304 10.5111 8.6447 10.3132 8.84349C10.3127 8.84401 10.3122 8.84453 10.3116 8.84509L8.99159 10.1651C8.61284 10.5397 8.56521 11.135 8.8796 11.5651C9.35703 12.2203 9.88535 12.8369 10.4596 13.4091C11.0999 14.0521 11.7959 14.6371 12.5396 15.1571C12.9693 15.4569 13.5519 15.4063 13.9236 15.0371L15.1996 13.7411C15.3975 13.5423 15.7192 13.5416 15.918 13.7395C15.9185 13.7401 15.919 13.7406 15.9196 13.7411L18.1716 15.9971C18.3705 16.195 18.3712 16.5166 18.1732 16.7155Z" fill="url(#paint0_linear_10:46)"/>
</g>
<defs>
<linearGradient id="paint0_linear_10:46" x1="11.9996" y1="-0.00038147" x2="11.9996" y2="23.9996" gradientUnits="userSpaceOnUse">
<stop stop-color="#D2C4B4"/>
<stop offset="1" stop-color="#A18A6F"/>
</linearGradient>
<clipPath id="clip0_10:46">
<rect width="24" height="24" fill="white"/>
</clipPath>
</defs>
</svg>
