<svg width="32" height="32" viewBox="0 0 32 32" fill="none" xmlns="http://www.w3.org/2000/svg">
<path fill-rule="evenodd" clip-rule="evenodd" d="M15.76 22.9057H17.3364C17.3364 22.9057 17.8093 22.8264 18.0457 22.5886C18.2822 22.3507 18.2822 21.875 18.2822 21.875C18.2822 21.875 18.2822 19.8136 19.228 19.4964C20.1739 19.1793 21.435 21.5578 22.6961 22.43C23.6419 23.1436 24.3513 22.985 24.3513 22.985L27.8193 22.9057C27.8193 22.9057 29.6322 22.8264 28.7652 21.32C28.6863 21.2407 28.2923 20.2893 26.1641 18.3071C23.9572 16.2457 24.2725 16.6421 26.8735 13.0743C28.4499 10.9336 29.0804 9.665 28.9228 9.03071C28.7652 8.47571 27.5829 8.63428 27.5829 8.63428H23.6419C23.6419 8.63428 23.3266 8.555 23.169 8.71357C22.9325 8.87214 22.8537 9.11 22.8537 9.11C22.8537 9.11 22.2232 10.775 21.435 12.2021C19.7009 15.1357 18.9916 15.2943 18.7551 15.1357C18.1246 14.7393 18.2822 13.3914 18.2822 12.5193C18.2822 9.665 18.7551 8.47571 17.4152 8.15857C17.0211 8.07928 16.7058 8 15.6023 8C14.1836 8 13.0013 8 12.3707 8.31714C11.8978 8.555 11.5826 9.03071 11.819 9.03071C12.0555 9.03071 12.686 9.18928 13.0013 9.58571C13.3166 10.2993 13.3166 11.4886 13.3166 11.4886C13.3166 11.4886 13.553 14.8979 12.7648 15.2943C12.2131 15.6114 11.5037 14.9771 9.92735 12.2814C9.13915 10.9336 8.5086 9.34786 8.5086 9.34786C8.5086 9.34786 8.42978 9.03071 8.19332 8.87214C7.95686 8.71357 7.56276 8.63428 7.56276 8.63428H3.85826C3.85826 8.63428 3.30652 8.63429 3.07006 8.87214C2.91242 9.11 3.07006 9.50643 3.07006 9.50643C3.07006 9.50643 5.98638 16.325 9.29679 19.8136C12.3707 23.1436 15.76 22.9057 15.76 22.9057Z" fill="#A18A6F"/>
</svg>
